<svg width="94" height="95" viewBox="0 0 94 95" fill="none" xmlns="http://www.w3.org/2000/svg">
<path fill-rule="evenodd" clip-rule="evenodd" d="M46.6836 0C72.3023 0 93.0703 21.2665 93.0703 47.5C93.0703 73.7335 72.3023 95 46.6836 95C21.0649 95 0.296875 73.7335 0.296875 47.5C0.296875 21.2665 21.0649 0 46.6836 0ZM9.57422 47.5C9.57422 68.4868 26.1887 85.5 46.6836 85.5C55.2592 85.5 63.1554 82.5214 69.4393 77.5193L17.3678 24.1982C12.483 30.633 9.57422 38.7186 9.57422 47.5ZM46.6836 9.5C38.108 9.5 30.2119 12.4786 23.9279 17.4807L75.9993 70.8018C80.8842 64.3671 83.793 56.2814 83.793 47.5C83.793 26.5132 67.1786 9.5 46.6836 9.5Z" fill="white"/>
</svg>
