<svg width="94" height="95" viewBox="0 0 94 95" fill="none" xmlns="http://www.w3.org/2000/svg">
<path d="M93.0703 47.5C93.0703 73.7336 72.3024 95 46.6836 95C21.0648 95 0.296875 73.7336 0.296875 47.5C0.296875 21.2664 21.0648 0 46.6836 0C72.3024 0 93.0703 21.2664 93.0703 47.5ZM41.3181 72.6509L75.734 37.4089C76.9027 36.2122 76.9027 34.2718 75.734 33.0751L71.5018 28.7413C70.3332 27.5444 68.4382 27.5444 67.2694 28.7413L39.2019 57.4823L26.0978 44.0637C24.9292 42.867 23.0342 42.867 21.8654 44.0637L17.6332 48.3975C16.4645 49.5942 16.4645 51.5346 17.6332 52.7313L37.0857 72.6507C38.2545 73.8476 40.1492 73.8476 41.3181 72.6509Z" fill="white"/>
</svg>
