<svg width="28" height="35" viewBox="0 0 28 35" fill="none" xmlns="http://www.w3.org/2000/svg">
<path d="M2.33336 33.2501C2.32986 33.71 2.5089 34.1525 2.83121 34.4805C3.15352 34.8086 3.59279 34.9954 4.05267 35.0001H23.9474C24.4073 34.9954 24.8465 34.8086 25.1688 34.4805C25.4912 34.1525 25.6702 33.71 25.6667 33.2501V9.91675H2.33336V33.2501ZM4.6667 12.2501H23.3334V32.6667H4.6667V12.2501Z" fill="black"/>
<path d="M9.91665 14.5833H7.58331V29.1666H9.91665V14.5833Z" fill="black"/>
<path d="M15.1666 14.5833H12.8333V29.1666H15.1666V14.5833Z" fill="black"/>
<path d="M20.4166 14.5833H18.0833V29.1666H20.4166V14.5833Z" fill="black"/>
<path d="M19.25 5.25V1.75C19.25 0.768687 18.5582 0 17.675 0H10.325C9.44183 0 8.75 0.768687 8.75 1.75V5.25H0V7.58333H28V5.25H19.25ZM11.0833 2.33333H16.9167V5.25H11.0833V2.33333Z" fill="black"/>
</svg>
