<svg width="28" height="33" viewBox="0 0 28 33" fill="none" xmlns="http://www.w3.org/2000/svg">
<path d="M25.6616 16.4135V6.7778C25.6616 6.53253 25.5642 6.2973 25.3908 6.12385L20.5377 1.27088C20.3643 1.09743 20.1291 1 19.8839 1H1.92481C1.41405 1 1 1.41405 1 1.92481V30.9022C1 31.413 1.41405 31.827 1.92481 31.827H11.7895" stroke="black" stroke-width="2" stroke-linecap="round" stroke-linejoin="round"/>
<path d="M7.16541 13.3304H19.4962M7.16541 7.16504H13.3308M7.16541 19.4958H11.7895" stroke="black" stroke-width="2" stroke-linecap="round" stroke-linejoin="round"/>
<path d="M22.5081 24.0268L24.0494 22.4855C24.7244 21.8105 25.8188 21.8105 26.4937 22.4855C27.1687 23.1604 27.1687 24.2548 26.4937 24.9297L24.9524 26.4711M22.5081 24.0268L17.8978 28.6372C17.6667 28.8682 17.515 29.1668 17.4648 29.4895L17.0907 31.8885L19.4895 31.5145C19.8124 31.4641 20.1108 31.3125 20.3419 31.0814L24.9524 26.4711M22.5081 24.0268L24.9524 26.4711" stroke="black" stroke-width="2" stroke-linecap="round" stroke-linejoin="round"/>
<path d="M19.4962 1V6.24059C19.4962 6.75135 19.9102 7.1654 20.421 7.1654H25.6616" stroke="black" stroke-width="2" stroke-linecap="round" stroke-linejoin="round"/>
</svg>
