<svg width="98" height="88" viewBox="0 0 98 88" fill="none" xmlns="http://www.w3.org/2000/svg">
<path d="M10.0625 0.0516357C7.4725 0.0516357 4.98857 0.973346 3.15716 2.614C1.32575 4.25466 0.296875 6.47986 0.296875 8.8001L0.296875 87.5362L19.8281 70.0393H88.1875C90.7775 70.0393 93.2614 69.1176 95.0929 67.477C96.9243 65.8363 97.9531 63.6111 97.9531 61.2909V8.8001C97.9531 6.47986 96.9243 4.25466 95.0929 2.614C93.2614 0.973346 90.7775 0.0516357 88.1875 0.0516357L10.0625 0.0516357ZM24.7109 39.6822C23.3646 39.6995 22.0429 39.3577 20.914 38.7003C19.7851 38.0428 18.9 37.0994 18.3713 35.99C17.8426 34.8807 17.6942 33.6555 17.9449 32.4703C18.1956 31.2852 18.8342 30.1936 19.7794 29.3345C20.7246 28.4754 21.9337 27.8876 23.2529 27.6458C24.572 27.404 25.9417 27.5192 27.1875 27.9767C28.4334 28.4343 29.4992 29.2134 30.2494 30.2151C30.9996 31.2168 31.4003 32.3957 31.4004 33.602C31.4006 35.1995 30.6989 36.7329 29.4471 37.8707C28.1954 39.0085 26.494 39.6592 24.7109 39.6822ZM49.9063 39.6822C48.5639 39.6822 47.2517 39.3256 46.1355 38.6575C45.0194 37.9894 44.1495 37.0398 43.6358 35.9288C43.1221 34.8178 42.9877 33.5952 43.2496 32.4158C43.5114 31.2364 44.1579 30.153 45.107 29.3026C46.0562 28.4523 47.2656 27.8732 48.5822 27.6386C49.8987 27.404 51.2634 27.5244 52.5036 27.9846C53.7438 28.4448 54.8038 29.2241 55.5495 30.224C56.2953 31.2239 56.6934 32.3994 56.6934 33.602C56.6936 34.4116 56.5133 35.2131 56.1631 35.9595C55.8129 36.7058 55.2998 37.382 54.654 37.9484C54.0081 38.5147 53.2425 38.9598 52.4021 39.2576C51.5617 39.5553 50.6633 39.6996 49.7598 39.6822H49.9063ZM75.1016 39.6822C73.7592 39.6822 72.447 39.3256 71.3309 38.6575C70.2147 37.9894 69.3448 37.0398 68.8311 35.9288C68.3174 34.8178 68.183 33.5952 68.4449 32.4158C68.7068 31.2364 69.3532 30.153 70.3024 29.3026C71.2516 28.4523 72.4609 27.8732 73.7775 27.6386C75.094 27.404 76.4587 27.5244 77.6989 27.9846C78.9391 28.4448 79.9991 29.2241 80.7449 30.224C81.4906 31.2239 81.8887 32.3994 81.8887 33.602C81.8889 34.4116 81.7086 35.2131 81.3584 35.9595C81.0082 36.7058 80.4951 37.382 79.8493 37.9484C79.2034 38.5147 78.4378 38.9598 77.5974 39.2576C76.757 39.5553 75.8586 39.6996 74.9551 39.6822H75.1016Z" fill="white"/>
</svg>
