<svg width="94" height="95" viewBox="0 0 94 95" fill="none" xmlns="http://www.w3.org/2000/svg">
<path d="M84.2658 52.1432C83.3979 59.309 80.5823 66.0813 76.1396 71.6886C71.6969 77.296 65.8057 81.5132 59.137 83.8598C52.4683 86.2065 45.2901 86.5883 38.4198 84.9618C31.5495 83.3354 25.2633 79.766 20.2772 74.6601C15.291 69.5543 11.8053 63.1173 10.217 56.0821C8.62861 49.047 9.0015 41.6965 11.2931 34.8677C13.5848 28.0389 17.7031 22.0064 23.1791 17.4571C28.655 12.9078 35.2685 10.0245 42.2664 9.13578V0C33.5094 0.901356 25.1821 4.32885 18.2519 9.88418C11.3218 15.4395 6.07344 22.8946 3.11677 31.3831C0.160091 39.8716 -0.383515 49.0451 1.54912 57.8374C3.48175 66.6297 7.81127 74.6799 14.0346 81.0526C20.2579 87.4253 28.1194 91.8587 36.7057 93.8377C45.2919 95.8167 54.2504 95.2601 62.5399 92.2324C70.8295 89.2048 78.1099 83.8305 83.535 76.734C88.9601 69.6376 92.3073 61.1103 93.1875 52.1432H84.2658ZM65.9156 3.95003C61.3726 1.84806 56.5269 0.51408 51.5671 0V9.13578C54.9766 9.57581 58.3106 10.4956 61.4746 11.8691L65.9156 3.95003ZM77.2043 24.5692L84.9797 20.1168C81.9701 15.7019 78.2551 11.8382 73.9909 8.68816L69.5336 16.6358C72.4484 18.8904 75.0317 21.5622 77.2043 24.5692ZM81.7361 32.8907C82.9967 36.0044 83.8474 39.276 84.2658 42.6193H93.1875C92.7046 37.7197 91.476 32.9276 89.5463 28.4169L81.7361 32.8907Z" fill="white"/>
</svg>
