<svg width="98" height="98" viewBox="0 0 98 98" fill="none" xmlns="http://www.w3.org/2000/svg">
<circle cx="49" cy="49" r="49" fill="white"/>
<path d="M49.8405 19C42.1843 19 35.9202 26.7953 35.9202 36.4003C35.9202 46.0053 42.1843 53.8006 49.8405 53.8006C57.4966 53.8006 63.7607 46.0053 63.7607 36.4003C63.7607 26.7953 57.4966 19 49.8405 19ZM35.2938 53.8006C27.9161 54.1486 22 60.2039 22 67.7208V74.6809H77.6809V67.7208C77.6809 60.2039 71.8344 54.1486 64.3871 53.8006C60.6287 58.0463 55.4782 60.7607 49.8405 60.7607C44.2028 60.7607 39.0523 58.0463 35.2938 53.8006Z" fill="black"/>
</svg>
